<?xml version="1.0" encoding="UTF-8"?>
<svg width="256" height="256" viewBox="0 0 256 256" fill="none" xmlns="http://www.w3.org/2000/svg">
  <title>SeeyGo — Explore, Record, Act</title>
  <desc>Minimal, vibrant logo for SeeyGo Todo app. Gradient rounded-square with an S-shaped path, forward arrow and a checkmark.</desc>
  <defs>
    <linearGradient id="g" x1="0" y1="0" x2="1" y2="1">
      <stop offset="0%" stop-color="#22D3EE"/>
      <stop offset="50%" stop-color="#6366F1"/>
      <stop offset="100%" stop-color="#A855F7"/>
    </linearGradient>
    <linearGradient id="glow" x1="0" y1="0" x2="0" y2="1">
      <stop offset="0%" stop-color="#FFFFFF" stop-opacity="0.35"/>
      <stop offset="100%" stop-color="#FFFFFF" stop-opacity="0"/>
    </linearGradient>
  </defs>

  <!-- Background -->
  <rect x="16" y="16" width="224" height="224" rx="56" fill="url(#g)"/>
  <rect x="16" y="16" width="224" height="224" rx="56" fill="url(#glow)"/>

  <!-- Stylized S path (workflow curve) -->
  <path d="M84 88H152C172 88 172 112 152 112H104C84 112 84 136 104 136H168" stroke="#FFFFFF" stroke-width="14" stroke-linecap="round" stroke-linejoin="round"/>

  <!-- Forward arrow (Go) -->
  <path d="M168 136H192" stroke="#FFFFFF" stroke-width="14" stroke-linecap="round"/>
  <path d="M188 136l-14 -12M188 136l-14 12" stroke="#FFFFFF" stroke-width="12" stroke-linecap="round" stroke-linejoin="round"/>

  <!-- Checkmark (Todo) -->
  <path d="M86 170l18 18l34 -38" stroke="#FFFFFF" stroke-width="12" stroke-linecap="round" stroke-linejoin="round"/>

  <!-- Subtle spark -->
  <circle cx="120" cy="72" r="4" fill="#FFFFFF" opacity="0.9"/>
  <circle cx="196" cy="92" r="3" fill="#FFFFFF" opacity="0.8"/>
</svg>
